<svg xmlns="http://www.w3.org/2000/svg" width="136" height="136">
    <defs>
        <filter filterUnits="userSpaceOnUse" id="a" x="0" y="0" width="136" height="136">
            <feOffset in="SourceAlpha"/>
            <feGaussianBlur result="blurOut" stdDeviation="2.449"/>
            <feFlood flood-color="#40C7FF" result="floodOut"/>
            <feComposite operator="atop" in="floodOut" in2="blurOut"/>
            <feComponentTransfer>
                <feFuncA type="linear" slope=".32"/>
            </feComponentTransfer>
            <feMerge>
                <feMergeNode/>
                <feMergeNode in="SourceGraphic"/>
            </feMerge>
        </filter>
    </defs>
    <g filter="url(#a)">
        <path fill-rule="evenodd" fill="#FFF" d="M67.5 5C102.018 5 130 32.982 130 67.499 130 102.017 102.018 130 67.5 130S5 102.017 5 67.499C5 32.982 32.982 5 67.5 5z"/>
    </g>
    <path fill-rule="evenodd" fill="#F26522" d="M100.494 88.751c-4.119 4.593-15.476 13.867-31.927 13.867H49.472c-2.641 0-5.229-1.139-6.899-2.066 0 0-.505-.368-.872-.55V103H32V74.782h9.701v2.721a10.15 10.15 0 0 1 5.49-1.627l20.787-.018c5.823.026 10.034 4.023 10.012 9.34-.004.95-.149 1.622-.371 2.183 2.483-.481 5.541-1.75 7.981-4.884 2.713-3.824 5.906-4.628 8.11-4.628 2.605 0 4.929 1.123 6.129 2.084 1.715 1.374 2.883 2.617 3.014 4.215.147 1.788-1.128 3.209-2.359 4.583zM38.452 77.602h-3.391v3.413h3.391v-3.413zm59.274 5.019c-.578-.463-2.163-1.341-4.016-1.341-2.053 0-3.859 1.085-5.369 3.224l-.044.061c-4.541 5.862-10.932 6.466-13.469 6.466l-.901.002H57.761a1.7 1.7 0 0 1-1.695-1.705 1.7 1.7 0 0 1 1.695-1.706h15.231c.082-.02 1.606-.139 1.606-2.439.018-3.983-3.321-5.9-6.636-5.914l-20.779.018a6.73 6.73 0 0 0-4.064 1.369l-.371.281a1.662 1.662 0 0 1-1.047.335v15.036l.024-.002c.358 0 .712.113 1.009.333.032.025 3.509 2.566 6.738 2.566h19.095c15.09 0 25.594-8.484 29.409-12.74.411-.458 1.502-1.675 1.498-2.018-.002-.017-.05-.464-1.748-1.826zm-30.987-9.812V70.09c-1.613-.13-3.226-.614-4.221-1.281l-.33-.222 1.048-3.669.605.36c1.225.727 2.69 1.143 4.02 1.143 1.443 0 2.376-.645 2.376-1.642 0-.682-.321-1.431-2.645-2.285-2.532-.922-5.122-2.294-5.122-5.475 0-2.561 1.687-4.504 4.435-5.157v-2.817h3.345v2.605c1.299.098 2.421.402 3.5.944l.407.205-1.049 3.595-.728-.336c-.652-.307-1.747-.819-3.363-.819-1.297 0-2.072.519-2.072 1.392 0 .76.726 1.297 2.991 2.208 3.362 1.269 4.804 2.955 4.804 5.635 0 2.673-1.813 4.745-4.656 5.385v2.95h-3.345zM88.583 50.39v24.594c-.403.386-.807.77-1.219 1.151a95.149 95.149 0 0 1-3.677 3.192v-32.01L69.08 36.997 54.139 47.332v26.026h-4.895V50.656l-2.334 1.608-2.765-4.064 6.414-4.418v-8.097h6.16v3.853l10.99-7.569L69.11 31l1.373.97 23.786 16.367-2.764 4.065-2.922-2.012z"/>
</svg>
