<svg xmlns="http://www.w3.org/2000/svg" width="136" height="136">
    <defs>
        <filter filterUnits="userSpaceOnUse" id="a" x="0" y="0" width="136" height="136">
            <feOffset in="SourceAlpha"/>
            <feGaussianBlur result="blurOut" stdDeviation="2.449"/>
            <feFlood flood-color="#40C7FF" result="floodOut"/>
            <feComposite operator="atop" in="floodOut" in2="blurOut"/>
            <feComponentTransfer>
                <feFuncA type="linear" slope=".32"/>
            </feComponentTransfer>
            <feMerge>
                <feMergeNode/>
                <feMergeNode in="SourceGraphic"/>
            </feMerge>
        </filter>
    </defs>
    <g filter="url(#a)">
        <path fill-rule="evenodd" fill="#FFF" d="M67.5 5C102.018 5 130 32.982 130 67.499 130 102.017 102.018 130 67.5 130S5 102.017 5 67.499C5 32.982 32.982 5 67.5 5z"/>
    </g>
    <path fill-rule="evenodd" fill="#F26522" d="M41.248 68.061 67.5 44.55l26.254 23.511a1.79 1.79 0 0 0 2.581-.188 1.942 1.942 0 0 0-.179-2.671L68.701 40.617a1.785 1.785 0 0 0-2.398 0l-9.784 8.759v-3.548c0-2.087-1.641-3.782-3.661-3.782-2.019 0-3.66 1.695-3.66 3.782v10.103l-10.352 9.271a1.94 1.94 0 0 0-.183 2.671c.667.786 1.82.871 2.585.188zm18.931 8.027h14.644V95h10.981c2.016 0 3.661-1.696 3.661-3.783V72.682a3.817 3.817 0 0 0-1.345-2.925L69.818 54.252a3.568 3.568 0 0 0-2.318-.859c-.824 0-1.648.288-2.32.859L46.878 69.757a3.813 3.813 0 0 0-1.341 2.925v18.535c0 2.087 1.641 3.783 3.661 3.783h10.981V76.088z"/>
</svg>
