<svg xmlns="http://www.w3.org/2000/svg" width="136" height="136">
    <defs>
        <filter filterUnits="userSpaceOnUse" id="a" x="0" y="0" width="136" height="136">
            <feOffset in="SourceAlpha"/>
            <feGaussianBlur result="blurOut" stdDeviation="2.449"/>
            <feFlood flood-color="#40C7FF" result="floodOut"/>
            <feComposite operator="atop" in="floodOut" in2="blurOut"/>
            <feComponentTransfer>
                <feFuncA type="linear" slope=".32"/>
            </feComponentTransfer>
            <feMerge>
                <feMergeNode/>
                <feMergeNode in="SourceGraphic"/>
            </feMerge>
        </filter>
    </defs>
    <g filter="url(#a)">
        <path fill-rule="evenodd" fill="#FFF" d="M67.5 5C102.018 5 130 32.982 130 67.499 130 102.017 102.018 130 67.5 130S5 102.017 5 67.499C5 32.982 32.982 5 67.5 5z"/>
    </g>
    <path fill-rule="evenodd" fill="#F26522" d="M105.136 98H29.864a1.64 1.64 0 0 1-1.648-1.631v-16.47c0-.512.243-.994.655-1.302l12.459-9.293v-3.732c0-.512.243-.994.656-1.302l24.522-18.293a1.662 1.662 0 0 1 1.984 0L93.014 64.27c.413.308.656.79.656 1.302v3.732l12.458 9.293c.413.308.656.79.656 1.302v16.47A1.64 1.64 0 0 1 105.136 98zM41.33 73.387l-9.818 7.324v14.028h9.818V73.387zm24.388 21.352h3.564v-8.218h-3.564v8.218zm24.656-28.355L67.5 49.321 44.626 66.384v28.355h17.796v-9.848c0-.9.738-1.63 1.648-1.63h6.86c.91 0 1.648.73 1.648 1.63v9.848h17.796V66.384zm13.114 14.327-9.818-7.324v21.352h9.818V80.711zm1.647-12.266a1.65 1.65 0 0 1-.991-.329L67.5 40.781 30.856 68.116a1.66 1.66 0 0 1-2.308-.32 1.619 1.619 0 0 1 .323-2.283l37.637-28.075a1.662 1.662 0 0 1 1.984 0l37.636 28.075c.727.542.872 1.564.324 2.283a1.653 1.653 0 0 1-1.317.649z"/>
    <text font-family="Roboto" fill="#F26522" font-weight="bold" font-size="22" x="61" y="77">?</text>
</svg>
